<svg width="128" height="38" viewBox="0 0 128 38" fill="none" xmlns="http://www.w3.org/2000/svg">
<g clip-path="url(#clip0_893_3626)">
<path d="M65.6247 9.06201V13.043C65.6247 14.4102 65.8793 14.8927 66.9114 14.8927C67.9435 14.8927 68.1714 14.3968 68.1714 13.0296V9.06201H69.4716V12.9759C69.4716 15.0267 68.8148 15.9114 66.8712 15.9114C64.9277 15.9114 64.3379 15.1206 64.3379 13.0698V9.07542H65.6381L65.6247 9.06201Z" fill="white"/>
<path d="M70.7314 10.992H71.7904L71.8708 11.4746C72.4337 11.1127 72.9565 10.9116 73.5731 10.9116C74.5784 10.9116 75.0207 11.3808 75.0207 12.4799V15.7772H73.7339V12.7345C73.7339 12.1046 73.5463 11.9303 73.1307 11.9303C72.809 11.9303 72.4605 12.0778 72.0182 12.3592V15.7638H70.7314V10.9786V10.992Z" fill="white"/>
<path d="M76.9511 10.1474C76.3881 10.1474 76.2139 9.98658 76.2139 9.45042C76.2139 8.91426 76.3747 8.75342 76.9511 8.75342C77.5274 8.75342 77.6883 8.90086 77.6883 9.45042C77.6883 9.99998 77.5274 10.1474 76.9511 10.1474ZM76.3077 10.9919H77.5945V15.7771H76.3077V10.9919Z" fill="white"/>
<path d="M79.1094 10.9917V9.6513L80.3962 9.47705V10.9917H81.4417V11.9434H80.3962V14.2354C80.3962 14.7314 80.5436 14.8922 80.8787 14.8922C81.0798 14.8922 81.254 14.8654 81.4417 14.7984L81.5489 15.7099C81.254 15.7903 80.9055 15.8573 80.5034 15.8573C79.4713 15.8573 79.1228 15.4686 79.1228 14.5571V11.9434H78.4258V10.9917H79.1228H79.1094Z" fill="white"/>
<path d="M86.0261 15.683C85.4899 15.8037 84.994 15.8707 84.364 15.8707C82.9432 15.8707 82.1523 15.4552 82.1523 13.4044C82.1523 11.3536 83.0236 10.8442 84.3372 10.8442C85.6508 10.8442 86.2405 11.3 86.2405 13.0157C86.2405 13.2569 86.2137 13.4982 86.2137 13.7529H83.4391C83.4659 14.7314 83.7474 14.8922 84.5918 14.8922C85.0744 14.8922 85.4363 14.8252 85.9188 14.7314L86.0127 15.683H86.0261ZM85.1146 12.9486C85.1146 12.0506 84.8867 11.8227 84.3104 11.8227C83.734 11.8227 83.4793 12.0506 83.4525 12.9486H85.1146Z" fill="white"/>
<path d="M90.261 15.3078C89.765 15.6429 89.3227 15.8707 88.7463 15.8707C87.741 15.8707 87.0977 15.3078 87.0977 13.458C87.0977 11.6083 87.9823 10.9113 89.1216 10.9113C89.5103 10.9113 89.8454 10.9917 90.1671 11.166C90.1269 10.8041 90.1135 10.5092 90.1135 10.1741V8.67285H91.4003V15.8037H90.3414L90.261 15.3346V15.3078ZM90.1001 12.1311C89.832 11.9702 89.6042 11.8898 89.3227 11.8898C88.8268 11.8898 88.371 12.2115 88.371 13.4178C88.371 14.6242 88.6391 14.8386 89.1216 14.8386C89.4031 14.8386 89.698 14.6912 90.1001 14.4097V12.1311Z" fill="white"/>
<path d="M95.449 9.06152H97.111L98.9474 12.6001C99.2557 13.2033 99.4835 13.7261 99.765 14.3963H99.7784C99.698 13.7261 99.6578 13.1229 99.6578 12.6001V9.06152H100.784V15.7769H99.1082L97.2853 12.2382C96.9904 11.6351 96.7357 11.1123 96.4677 10.4421H96.4542C96.5079 11.1123 96.5615 11.7155 96.5615 12.2382V15.7769H95.4355V9.06152H95.449Z" fill="white"/>
<path d="M105.099 15.3076C104.603 15.6427 104.161 15.8706 103.584 15.8706C102.579 15.8706 101.936 15.3076 101.936 13.4579C101.936 11.6081 102.82 10.9111 103.96 10.9111C104.429 10.9111 104.75 11.0318 105.139 11.2328L105.193 11.005H106.252V15.7901H105.193L105.112 15.321L105.099 15.3076ZM104.938 12.1309C104.67 11.97 104.442 11.8896 104.161 11.8896C103.665 11.8896 103.209 12.2113 103.209 13.4177C103.209 14.624 103.477 14.8385 103.96 14.8385C104.241 14.8385 104.536 14.691 104.938 14.4095V12.1309Z" fill="white"/>
<path d="M107.74 10.9917V9.6513L109.027 9.47705V10.9917H110.072V11.9434H109.027V14.2354C109.027 14.7314 109.174 14.8922 109.509 14.8922C109.71 14.8922 109.885 14.8654 110.072 14.7984L110.179 15.7099C109.885 15.7903 109.536 15.8573 109.121 15.8573C108.088 15.8573 107.74 15.4686 107.74 14.5571V11.9434H107.043V10.9917H107.74Z" fill="white"/>
<path d="M111.694 10.1474C111.131 10.1474 110.957 9.98658 110.957 9.45042C110.957 8.91426 111.118 8.75342 111.694 8.75342C112.271 8.75342 112.431 8.90086 112.431 9.45042C112.431 9.99998 112.271 10.1474 111.694 10.1474ZM111.064 10.9919H112.351V15.7771H111.064V10.9919Z" fill="white"/>
<path d="M115.635 15.9109C114.214 15.9109 113.45 15.3882 113.45 13.4044C113.45 11.4206 114.281 10.8442 115.675 10.8442C117.069 10.8442 117.873 11.3402 117.873 13.3508C117.873 15.3613 117.029 15.9109 115.635 15.9109ZM115.662 11.8227C115.018 11.8227 114.737 12.1042 114.737 13.3642C114.737 14.6241 115.005 14.9324 115.662 14.9324C116.319 14.9324 116.587 14.6509 116.587 13.3776C116.587 12.1042 116.305 11.8227 115.662 11.8227Z" fill="white"/>
<path d="M118.999 10.9916H120.058L120.138 11.4741C120.715 11.1122 121.224 10.9111 121.841 10.9111C122.846 10.9111 123.288 11.3803 123.288 12.4794V15.7767H122.001V12.7341C122.001 12.1041 121.814 11.9298 121.398 11.9298C121.077 11.9298 120.728 12.0773 120.286 12.3588V15.7633H118.999V10.9782V10.9916Z" fill="white"/>
<path d="M124.415 14.758C124.897 14.8787 125.313 14.9457 125.688 14.9457C126.264 14.9457 126.532 14.7849 126.532 14.4766C126.532 14.1817 126.345 14.1013 125.527 13.7662C124.642 13.4043 124.294 13.1228 124.294 12.3722C124.294 11.3937 124.964 10.9111 126.305 10.9111C126.72 10.9111 127.149 10.9782 127.471 11.072L127.35 11.9968C127.002 11.9164 126.64 11.8494 126.264 11.8494C125.768 11.8494 125.487 11.97 125.487 12.2783C125.487 12.5062 125.675 12.6134 126.425 12.9083C127.377 13.2836 127.739 13.5517 127.739 14.3827C127.739 15.3344 127.136 15.884 125.634 15.884C125.152 15.884 124.75 15.817 124.307 15.6963L124.428 14.758H124.415Z" fill="white"/>
<path d="M68.4126 27.9881C67.9837 28.1088 67.4609 28.2026 66.9516 28.2026C65.2493 28.2026 64.4316 27.6396 64.4316 24.7712C64.4316 21.9028 65.3565 21.313 67.0052 21.313C67.5279 21.313 68.0239 21.3934 68.4126 21.5006L68.3322 21.9564C67.9569 21.8491 67.4609 21.7687 67.0052 21.7687C65.7184 21.7687 64.9946 22.2245 64.9946 24.7444C64.9946 27.2643 65.6514 27.7469 67.0052 27.7469C67.4341 27.7469 67.9301 27.653 68.3322 27.5458L68.4126 28.0015V27.9881Z" fill="white"/>
<path d="M69.6992 20.978H70.2622V28.1089H69.6992V20.978Z" fill="white"/>
<path d="M72.394 22.1976C72.0589 22.1976 71.9785 22.1037 71.9785 21.7955C71.9785 21.4872 72.0589 21.4067 72.394 21.4067C72.7291 21.4067 72.7962 21.4872 72.7962 21.7955C72.7962 22.1037 72.7157 22.1976 72.394 22.1976ZM72.1126 23.3905H72.6755V28.0953H72.1126V23.3905Z" fill="white"/>
<path d="M74.3242 23.4034H74.7934L74.8336 23.9262C75.4367 23.5642 76.0265 23.3096 76.6029 23.3096C77.2865 23.3096 77.6082 23.6179 77.7958 23.9798C78.5062 23.5508 79.096 23.3096 79.659 23.3096C80.557 23.3096 80.9994 23.7653 80.9994 24.8644V28.1216H80.4364V24.9448C80.4364 24.087 80.1415 23.7787 79.5383 23.7787C79.096 23.7787 78.5867 24.0066 77.9031 24.4221C77.9299 24.5829 77.9567 24.6768 77.9567 24.918V28.1216H77.3937V24.9448C77.3937 24.087 77.0854 23.7787 76.4956 23.7787C76.0533 23.7787 75.544 24.0066 74.914 24.3819V28.1216H74.351V23.4168L74.3242 23.4034Z" fill="white"/>
<path d="M85.7175 27.6122C85.1814 27.9473 84.6586 28.2154 84.1091 28.2154C83.0636 28.2154 82.4336 27.6926 82.4336 25.8161C82.4336 23.9396 83.3853 23.3096 84.4308 23.3096C84.9133 23.3096 85.3154 23.4704 85.7309 23.6849L85.7578 23.4034H86.2269V28.1082H85.7578L85.7041 27.6122H85.7175ZM85.6639 24.1406C85.235 23.8993 84.8865 23.7519 84.4576 23.7519C83.7204 23.7519 82.9966 24.1674 82.9966 25.7625C82.9966 27.3575 83.4523 27.7194 84.2163 27.7194C84.6318 27.7194 85.0742 27.505 85.6639 27.1297V24.1272V24.1406Z" fill="white"/>
<path d="M88.1435 23.4033V21.9691L88.7064 21.8887V23.4167H89.819V23.859H88.7064V27.0894C88.7064 27.5987 88.8673 27.7462 89.2426 27.7462C89.457 27.7462 89.6313 27.7194 89.819 27.6657L89.8726 28.0947C89.6447 28.1617 89.4034 28.2153 89.1354 28.2153C88.4115 28.2153 88.1435 27.9204 88.1435 27.2368V23.8724H87.4062V23.4301H88.1435V23.4033Z" fill="white"/>
<path d="M94.1493 28.0147C93.6801 28.122 93.211 28.2024 92.715 28.2024C91.5355 28.2024 90.7715 27.8405 90.7715 25.7629C90.7715 23.6853 91.5355 23.2563 92.715 23.2563C93.8946 23.2563 94.3905 23.7121 94.3905 25.468C94.3905 25.5886 94.3905 25.669 94.3905 25.8165H91.3479C91.3613 27.5054 91.8706 27.7332 92.8357 27.7332C93.3048 27.7332 93.6801 27.6662 94.0956 27.559L94.1493 28.0013V28.0147ZM93.8544 25.4144C93.841 24.0204 93.4791 23.7255 92.6748 23.7255C91.8706 23.7255 91.4015 24.0472 91.3479 25.4144H93.8544Z" fill="white"/>
<path d="M101.628 27.9881C101.199 28.1088 100.677 28.2026 100.167 28.2026C98.4651 28.2026 97.6475 27.6396 97.6475 24.7712C97.6475 21.9028 98.5723 21.313 100.221 21.313C100.744 21.313 101.24 21.3934 101.628 21.5006L101.548 21.9564C101.173 21.8491 100.677 21.7687 100.221 21.7687C98.9342 21.7687 98.2104 22.2245 98.2104 24.7444C98.2104 27.2643 98.8672 27.7469 100.221 27.7469C100.65 27.7469 101.146 27.653 101.548 27.5458L101.628 28.0015V27.9881Z" fill="white"/>
<path d="M102.915 20.978H103.478V22.6669C103.478 23.0288 103.464 23.4309 103.438 23.8867C104.014 23.565 104.644 23.2969 105.26 23.2969C106.239 23.2969 106.695 23.7526 106.695 24.8518V28.1089H106.118V24.9322C106.118 24.0743 105.81 23.766 105.14 23.766C104.644 23.766 104.108 23.9939 103.464 24.3692V28.1089H102.901V20.978H102.915Z" fill="white"/>
<path d="M111.427 27.6122C110.89 27.9473 110.368 28.2154 109.818 28.2154C108.773 28.2154 108.143 27.6926 108.143 25.8161C108.143 23.9396 109.094 23.3096 110.14 23.3096C110.622 23.3096 111.024 23.4704 111.44 23.6849L111.467 23.4034H111.936V28.1082H111.467L111.413 27.6122H111.427ZM111.373 24.1406C110.944 23.8993 110.595 23.7519 110.167 23.7519C109.429 23.7519 108.706 24.1674 108.706 25.7625C108.706 27.3575 109.161 27.7194 109.925 27.7194C110.341 27.7194 110.783 27.505 111.373 27.1297V24.1272V24.1406Z" fill="white"/>
<path d="M113.598 23.4034H114.067L114.107 23.9262C114.71 23.5642 115.34 23.3096 115.957 23.3096C116.935 23.3096 117.391 23.7653 117.391 24.8644V28.1216H116.828V24.9448C116.828 24.087 116.52 23.7787 115.85 23.7787C115.354 23.7787 114.817 24.0066 114.174 24.3819V28.1216H113.598V23.4168V23.4034Z" fill="white"/>
<path d="M122.618 28.3636C122.618 29.7174 121.961 30.2803 120.567 30.2803C120.004 30.2803 119.602 30.2133 119.147 30.1195L119.214 29.6772C119.656 29.771 120.058 29.8246 120.567 29.8246C121.613 29.8246 122.042 29.4493 122.042 28.4172V27.68C121.533 27.9883 121.037 28.2296 120.487 28.2296C119.442 28.2296 118.812 27.7068 118.812 25.8303C118.812 23.9537 119.763 23.3237 120.809 23.3237C121.291 23.3237 121.68 23.4846 122.109 23.699L122.136 23.4176H122.605V28.377L122.618 28.3636ZM122.055 24.1414C121.626 23.9001 121.278 23.7527 120.849 23.7527C120.112 23.7527 119.388 24.1682 119.388 25.7632C119.388 27.3583 119.844 27.7202 120.608 27.7202C121.023 27.7202 121.465 27.5057 122.055 27.1304V24.128V24.1414Z" fill="white"/>
<path d="M127.552 28.0147C127.082 28.122 126.613 28.2024 126.117 28.2024C124.938 28.2024 124.174 27.8405 124.174 25.7629C124.174 23.6853 124.938 23.2563 126.117 23.2563C127.297 23.2563 127.793 23.7121 127.793 25.468C127.793 25.5886 127.793 25.669 127.793 25.8165H124.75C124.777 27.5054 125.273 27.7332 126.238 27.7332C126.707 27.7332 127.082 27.6662 127.498 27.559L127.552 28.0013V28.0147ZM127.257 25.4144C127.243 24.0204 126.881 23.7255 126.077 23.7255C125.273 23.7255 124.804 24.0472 124.75 25.4144H127.257Z" fill="white"/>
<path d="M32.8123 34.6223C30.3996 33.5768 27.8931 32.2364 24.9844 32.8798C24.6761 32.8798 24.3947 33.0675 24.0998 33.0809C23.8049 33.0675 23.5234 32.8932 23.2151 32.8798C20.3065 32.2498 17.7999 33.5768 15.3873 34.6223C13.5911 35.3327 11.232 35.2255 9.65039 34.1264C10.4278 35.1049 11.4733 35.708 12.559 36.1236C14.5696 36.9278 16.9555 36.3782 18.631 35.2121C20.0518 34.4079 21.285 32.8262 23.1615 33.4294C21.2447 34.314 19.5022 35.574 17.9206 37.1691L18.9125 37.9867C20.0652 36.4452 21.5932 35.1719 23.1481 34.1934C23.4832 34.0191 23.7379 33.8047 24.0998 33.7645C24.4751 33.8181 24.7164 34.0191 25.0649 34.1934C26.6197 35.1719 28.1477 36.4452 29.3005 37.9867L30.2924 37.1691C28.7107 35.5606 26.9682 34.314 25.0514 33.4294C26.928 32.8262 28.1611 34.4079 29.582 35.2121C31.244 36.3782 33.6433 36.9144 35.6539 36.1236C36.7262 35.708 37.7851 35.1049 38.5626 34.1264C36.9809 35.2121 34.6218 35.3327 32.8257 34.6223H32.8123Z" fill="white"/>
<path d="M5.99054 10.5355C6.36585 9.70448 6.64733 8.80642 6.75456 7.92177C6.60712 8.29707 6.35244 8.63217 6.05756 8.95386C4.70377 10.187 3.14892 11.4604 2.85403 13.2565C2.80042 13.5112 2.78701 13.7793 2.70659 14.0205C2.65297 14.0473 2.65297 13.9803 2.62617 13.9669L2.78701 11.7419C2.84063 9.57044 1.80853 7.17115 3.05509 5.25439C3.01488 5.25439 2.98807 5.2812 2.96126 5.29461C1.82193 6.74223 1.0177 8.33729 1.07132 10.2943C0.910469 12.6935 2.45191 14.3958 2.62617 16.6611C2.97467 14.302 4.93163 12.5997 5.99054 10.5355Z" fill="white"/>
<path d="M7.34502 28.0412C7.11715 27.4514 6.75525 26.9018 6.581 26.2987C5.9108 23.4972 6.27271 20.2803 5.07976 17.6934C5.30763 19.1678 4.71786 20.468 4.58382 21.862C4.46319 23.0147 4.63744 24.1406 5.11998 25.0923C5.2138 25.3872 5.49528 25.6419 5.5623 25.9233C5.13338 25.5346 4.8519 25.0253 4.5302 24.5561C3.17641 22.2909 0.240963 20.8433 0.0399049 18.1089C-0.0539222 19.3286 -0.0137106 20.6422 0.455425 21.6877C1.54114 24.7572 4.89211 26.3523 7.34502 28.0278V28.0412Z" fill="white"/>
<path d="M3.31091 10.9642C3.69962 10.1466 4.41002 9.42276 5.13383 8.77938C6.88974 7.53281 8.72607 5.80371 8.75288 3.59207C8.18992 5.17373 6.47422 5.84392 5.30808 6.91624C4.71831 7.50601 4.23577 8.1762 3.9677 8.90001L3.92748 8.8732C4.06152 8.24322 4.35641 7.66685 4.51725 7.05027C5.04001 5.37479 4.93277 3.36421 6.55464 2.23828C5.7102 2.45274 4.95958 2.96209 4.38322 3.6993C3.02942 5.13352 3.16346 7.33176 3.35112 9.24851C3.39133 9.83828 3.27069 10.4012 3.31091 10.9508V10.9642Z" fill="white"/>
<path d="M3.7534 22.5456L3.87403 22.6394C3.73999 21.7414 3.67298 20.7629 3.92765 19.905C4.31636 18.5244 4.75869 17.1841 5.05357 15.7632C5.21442 14.6507 5.4825 13.4042 5.34846 12.3319C5.20102 12.9082 5.02677 13.4712 4.73188 13.9805C3.49872 15.8437 2.27897 18.0419 3.13682 20.4278C3.11001 20.4546 3.0832 20.4814 3.0564 20.468C2.7213 19.6906 2.65428 18.7791 2.42641 17.9481C1.86345 15.7096 0.134351 13.8465 0.630295 11.2729C0.362217 11.8359 0.254986 12.4659 0.120947 13.0691C-0.173938 14.6507 0.120947 16.3262 0.549871 17.7738C1.07262 19.5968 2.85534 20.8835 3.7534 22.5456Z" fill="white"/>
<path d="M5.30762 6.19259C6.21908 5.33474 7.25118 4.67795 8.05541 3.67266C8.95347 2.4127 9.79792 1.07231 11.0043 0C9.35559 0.643386 7.50585 1.25996 6.51397 3.00247C5.81696 3.94074 5.79016 5.16049 5.30762 6.19259Z" fill="white"/>
<path d="M45.3985 11.7416L45.5593 13.9667C45.5593 13.9667 45.5325 14.0471 45.4789 14.0203C45.4119 13.7656 45.3851 13.511 45.3449 13.2563C45.05 11.4602 43.4951 10.1868 42.1413 8.95363C41.8599 8.63194 41.5918 8.29684 41.4443 7.92153C41.5516 8.81959 41.833 9.71765 42.195 10.5353C43.2539 12.5995 45.1974 14.2884 45.5593 16.6609C45.7336 14.3956 47.275 12.7067 47.1142 10.294C47.1678 8.35046 46.3502 6.7554 45.2108 5.29437C45.184 5.28097 45.1572 5.24076 45.117 5.25416C46.3636 7.15751 45.3315 9.57021 45.3851 11.7416H45.3985Z" fill="white"/>
<path d="M45.76 17.9481C45.5187 18.7791 45.4651 19.6772 45.13 20.468C45.1032 20.4814 45.0764 20.468 45.0496 20.4278C45.894 18.0553 44.6743 15.8437 43.4545 13.9805C43.1596 13.4712 42.9854 12.9216 42.8379 12.3319C42.7039 13.4042 42.9854 14.6373 43.1328 15.7632C43.4277 17.1841 43.87 18.5379 44.2588 19.905C44.5134 20.7629 44.4464 21.7414 44.3124 22.6394L44.433 22.5456C45.3311 20.8835 47.1138 19.5834 47.6365 17.7738C48.0789 16.3262 48.3603 14.6507 48.0655 13.0691C47.9314 12.4525 47.8108 11.8225 47.5561 11.2729C48.0655 13.8465 46.323 15.7096 45.76 17.9481Z" fill="white"/>
<path d="M43.6829 7.06395C43.8437 7.68052 44.1386 8.25689 44.2727 8.88687L44.2325 8.91368C43.9644 8.18987 43.4818 7.51968 42.8921 6.92991C41.7259 5.8576 40.0102 5.1874 39.4473 3.60575C39.4741 5.81739 41.3104 7.54649 43.0663 8.79305C43.7901 9.42303 44.4871 10.1602 44.8892 10.9779C44.9295 10.4283 44.8088 9.86536 44.849 9.26218C45.0367 7.33202 45.1841 5.13379 43.8169 3.71298C43.2272 2.97576 42.4765 2.46642 41.6455 2.25195C43.2808 3.37788 43.1735 5.38846 43.6829 7.06395Z" fill="white"/>
<path d="M40.1449 3.67266C40.9491 4.67795 41.9812 5.33474 42.8927 6.19259C42.3967 5.1739 42.3833 3.94074 41.6729 3.00247C40.681 1.25996 38.8313 0.643386 37.1826 0C38.389 1.05891 39.2334 2.4127 40.1315 3.67266H40.1449Z" fill="white"/>
<path d="M39.594 29.6497C39.2455 29.958 38.8702 30.2394 38.4814 30.4539C38.401 30.4941 38.3206 30.5343 38.2536 30.5745L38.2268 30.5477C38.2268 30.5477 38.2938 30.4807 38.334 30.4539C38.8433 29.9982 39.3929 29.4888 39.7414 28.899C41.0818 27.0225 40.6127 24.3953 41.6179 22.3848C40.7065 23.4839 39.8754 24.6232 39.3259 25.8698C38.7093 27.3844 38.3742 29.0599 37.4627 30.4405C37.1545 30.9096 36.7657 31.352 36.2832 31.7273C38.0391 31.1509 40.0631 31.2045 41.7386 30.4405C42.0201 30.3065 42.3015 30.159 42.5696 29.9714C44.5534 28.7516 46.3227 26.674 46.698 24.3953C45.3308 27.505 41.8994 27.7597 39.6074 29.6497H39.594Z" fill="white"/>
<path d="M48.1599 18.1089C47.9588 20.8433 45.0234 22.2909 43.6696 24.5561C43.3479 25.0253 43.0664 25.5346 42.6375 25.9233C42.7045 25.6285 42.9726 25.3872 43.0798 25.0923C43.5623 24.1406 43.7366 23.0147 43.616 21.862C43.4819 20.468 42.8921 19.1678 43.12 17.6934C41.9271 20.2803 42.289 23.4972 41.6188 26.2987C41.4445 26.9152 41.096 27.4514 40.8682 28.0412C43.3211 26.3657 46.672 24.7706 47.7578 21.7011C48.2135 20.6422 48.2671 19.3286 48.1733 18.1223L48.1599 18.1089Z" fill="white"/>
<path d="M34.4603 32.5044C34.0448 32.558 33.6695 32.7323 33.2272 32.6653C33.5757 32.4374 34.0582 32.4642 34.4469 32.2765C35.4522 31.9146 36.0822 31.2444 36.5781 30.4536C37.2081 29.4349 37.6236 28.242 38.3206 27.3037C37.0071 28.175 35.8677 29.3009 34.6882 30.4536C34.4335 30.6949 34.1923 30.9362 33.9376 31.1774C32.8787 32.1023 31.6187 32.5312 30.2783 32.8127C30.6 32.9333 31.0155 32.8931 31.364 32.987C33.7633 33.5767 36.4307 34.5418 38.9774 33.684C40.5457 33.188 42.1676 31.9817 43.0388 30.467C43.0924 30.3866 43.1326 30.2928 43.1729 30.2124C43.0924 30.2928 43.012 30.3866 42.9316 30.467C40.7199 32.6519 37.2885 31.9012 34.4603 32.5312V32.5044Z" fill="white"/>
<path d="M16.8346 32.9601C17.1831 32.8663 17.5987 32.9065 17.9204 32.7858C16.58 32.5044 15.32 32.0888 14.2611 31.1506C14.0064 30.9093 13.7518 30.668 13.5105 30.4268C12.3309 29.274 11.1782 28.1481 9.86463 27.2769C10.5616 28.2151 10.9772 29.4215 11.6071 30.4268C12.1031 31.2176 12.7331 31.9012 13.7384 32.2497C14.1137 32.4508 14.6096 32.4239 14.9447 32.6384C14.5024 32.7054 14.1271 32.5446 13.7115 32.4776C10.8833 31.8476 7.45193 32.5982 5.24029 30.4134C5.15987 30.3329 5.07945 30.2525 4.99902 30.1587C5.03924 30.2391 5.09285 30.3329 5.13306 30.4134C6.00431 31.928 7.62618 33.1344 9.19444 33.6303C11.7412 34.5015 14.4085 33.5365 16.8078 32.9333L16.8346 32.9601Z" fill="white"/>
<path d="M6.47382 30.4405C8.1493 31.2045 10.1733 31.1509 11.9292 31.7273C11.4467 31.3386 11.0713 30.8962 10.7631 30.4405C9.83819 29.0465 9.5165 27.3844 8.88651 25.8698C8.33696 24.6232 7.50591 23.4839 6.59445 22.3848C7.59974 24.3953 7.13061 27.0225 8.47099 28.899C8.8195 29.4754 9.36905 29.9982 9.8784 30.4405C9.8784 30.4405 9.94542 30.5075 9.98563 30.5343L9.95882 30.5611C9.8784 30.5209 9.79798 30.4807 9.71756 30.4405C9.32884 30.2394 8.94013 29.958 8.59163 29.6497C6.29957 27.7597 2.86817 27.505 1.50098 24.3953C1.87629 26.674 3.6456 28.7516 5.62937 29.9714C5.89745 30.159 6.17893 30.3065 6.46041 30.4405H6.47382Z" fill="white"/>
<path d="M24.0997 29.3808C29.8634 29.3808 34.8228 25.9897 37.1149 21.0972L33.8577 19.5826C32.142 23.2553 28.4157 25.802 24.0997 25.802C18.1618 25.802 13.3364 20.99 13.3364 15.0387C13.3364 9.08736 18.1618 4.26196 24.0997 4.26196C28.4157 4.26196 32.142 6.8087 33.8577 10.4814L37.1149 8.96672C34.8228 4.07431 29.8634 0.683126 24.0997 0.683126C16.178 0.669722 9.74414 7.10359 9.74414 15.0253C9.74414 22.947 16.1646 29.3808 24.0997 29.3808Z" fill="white"/>
<path d="M24.1 10.3615C25.6816 10.3615 27.0756 11.1523 27.9201 12.3586L30.5606 10.5089C29.1398 8.47152 26.7673 7.14453 24.1 7.14453C19.7437 7.14453 16.2051 10.6832 16.2051 15.0394C16.2051 19.3957 19.7437 22.9343 24.1 22.9343C26.7807 22.9343 29.1398 21.6073 30.5606 19.5699L27.9201 17.7202C27.0756 18.9265 25.6816 19.7174 24.1 19.7174C21.5264 19.7174 19.4354 17.6264 19.4354 15.0528C19.4354 12.4793 21.5264 10.3883 24.1 10.3883V10.3615Z" fill="white"/>
</g>
<defs>
<clipPath id="clip0_893_3626">
<rect width="127.793" height="38" fill="white"/>
</clipPath>
</defs>
</svg>
